<?xml version="1.0" encoding="utf-8"?>
<!-- Generator: Adobe Illustrator 25.0.1, SVG Export Plug-In . SVG Version: 6.00 Build 0)  -->
<svg version="1.1" xmlns="http://www.w3.org/2000/svg" xmlns:xlink="http://www.w3.org/1999/xlink" x="0px" y="0px"
	 viewBox="0 0 834.98 473.3" style="enable-background:new 0 0 834.98 473.3;" xml:space="preserve">
<style type="text/css">
	.st0{display:none;}
	.st1{display:inline;}
	.st2{fill:#5081C2;}
	.st3{display:none;fill:#5081C2;}
	.st4{fill:white}
</style>
<g id="Layer_1">
	<g class="st4">
		<path fill="white" d="M115.95,402.82H48.41c2.49,11.12,11.95,17.92,25.56,17.92c9.46,0,16.26-2.82,22.4-8.63l13.77,14.94
			c-8.3,9.46-20.74,14.44-36.84,14.44c-30.87,0-50.95-19.42-50.95-45.97c0-26.72,20.41-45.97,47.63-45.97
			c26.22,0,46.46,17.59,46.46,46.3C116.44,397.84,116.11,400.66,115.95,402.82z M48.07,387.72h43.98
			c-1.82-11.29-10.29-18.59-21.9-18.59C58.36,369.13,49.9,376.27,48.07,387.72z"/>
		<path fill="white" d="M133.71,317.03h25.89v123.13h-25.89V317.03z"/>
		<path fill="white" d="M270.62,402.82h-67.54c2.49,11.12,11.95,17.92,25.56,17.92c9.46,0,16.26-2.82,22.4-8.63l13.77,14.94
			c-8.3,9.46-20.74,14.44-36.84,14.44c-30.87,0-50.95-19.42-50.95-45.97c0-26.72,20.41-45.97,47.63-45.97
			c26.22,0,46.46,17.59,46.46,46.3C271.11,397.84,270.78,400.66,270.62,402.82z M202.74,387.72h43.98
			c-1.82-11.29-10.29-18.59-21.9-18.59C213.03,369.13,204.57,376.27,202.74,387.72z"/>
		<path fill="white" d="M281.74,395.52c0-26.88,20.74-45.97,49.78-45.97c18.75,0,33.52,8.13,39.99,22.73l-20.08,10.79
			c-4.81-8.46-11.95-12.28-20.08-12.28c-13.11,0-23.4,9.13-23.4,24.72c0,15.6,10.29,24.73,23.4,24.73c8.13,0,15.27-3.65,20.08-12.28
			l20.08,10.95c-6.47,14.27-21.24,22.57-39.99,22.57C302.48,441.49,281.74,422.4,281.74,395.52z"/>
		<path fill="white" d="M445.37,435.84c-5.31,3.82-13.11,5.64-21.07,5.64c-21.07,0-33.35-10.79-33.35-32.03v-36.67h-13.77v-19.91h13.77v-21.74
			h25.89v21.74h22.24v19.91h-22.24v36.34c0,7.63,4.15,11.78,11.12,11.78c3.82,0,7.63-1.16,10.45-3.32L445.37,435.84z"/>
		<path fill="white" d="M515.4,349.55v23.9c-2.16-0.17-3.82-0.33-5.81-0.33c-14.27,0-23.73,7.8-23.73,24.89v42.15h-25.89v-89.28h24.73v11.78
			C491,354.03,501.62,349.55,515.4,349.55z"/>
		<path fill="white" d="M527.68,324c0-8.13,6.47-14.44,16.1-14.44c9.62,0,16.1,5.97,16.1,13.94c0,8.63-6.47,14.93-16.1,14.93
			C534.15,338.43,527.68,332.13,527.68,324z M530.84,350.88h25.89v89.28h-25.89V350.88z"/>
		<path fill="white" d="M574.15,395.52c0-26.88,20.74-45.97,49.78-45.97c18.75,0,33.52,8.13,39.99,22.73l-20.08,10.79
			c-4.81-8.46-11.95-12.28-20.08-12.28c-13.11,0-23.4,9.13-23.4,24.72c0,15.6,10.29,24.73,23.4,24.73c8.13,0,15.27-3.65,20.08-12.28
			l20.08,10.95c-6.47,14.27-21.24,22.57-39.99,22.57C594.89,441.49,574.15,422.4,574.15,395.52z"/>
		<path fill="white" d="M757.86,389.21v50.94h-24.23v-11.12c-4.81,8.13-14.11,12.45-27.21,12.45c-20.91,0-33.35-11.62-33.35-27.05
			c0-15.77,11.12-26.72,38.33-26.72h20.58c0-11.12-6.64-17.59-20.58-17.59c-9.46,0-19.25,3.15-25.72,8.3l-9.29-18.09
			c9.79-6.97,24.23-10.79,38.5-10.79C742.09,349.55,757.86,362.16,757.86,389.21z M731.97,411.95v-9.13h-17.76
			c-12.11,0-15.93,4.48-15.93,10.45c0,6.47,5.48,10.79,14.6,10.79C721.51,424.06,728.98,420.08,731.97,411.95z"/>
		<path fill="white" d="M781.26,317.03h25.89v123.13h-25.89V317.03z"/>
	</g>
	<path class="st2" d="M610.84,217.69l32.84,0.1l6.63,19.46c0.8,2.34,3,3.93,5.47,3.95c2.48,0.02,4.7-1.53,5.53-3.86l6.93-19.35
		l8.02,0.06l6.63,19.46c0.8,2.34,3,3.93,5.47,3.95c2.47,0.02,4.69-1.52,5.53-3.86l6.96-19.35l8.08,0.07l6.65,19.46
		c1.04,3.05,4.35,4.68,7.4,3.63c2.4-0.82,3.92-3.06,3.94-5.46c0.01-0.64-0.09-1.29-0.31-1.93l-5.33-15.6l58.19,0.47l-5.86-11.7
		l-56.32-0.46l-6.64-19.46c-0.8-2.35-2.99-3.93-5.46-3.95s-4.69,1.52-5.53,3.86l-6.96,19.35l-8.06-0.07L678,187.02
		c-0.8-2.35-3-3.93-5.47-3.95c-2.48-0.02-4.7,1.53-5.53,3.86l-6.93,19.35l-8.01-0.06l-6.63-19.46c-1.04-3.05-4.35-4.68-7.4-3.63
		c-3.05,1.02-4.68,4.34-3.64,7.39l5.31,15.6l-36.26-0.18"/>
	<path class="st3" d="M428.28,71.67l-20.64,43.46l-29.95-4.16c-3.6-0.5-7.14,1.34-8.81,4.58c-1.67,3.25-1.09,7.18,1.41,9.82
		l20.84,21.9l-5.39,10.49l-29.95-4.15c-3.6-0.5-7.14,1.34-8.81,4.58c-1.66,3.24-1.1,7.17,1.41,9.82l20.82,21.95l-5.43,10.57
		l-29.96-4.13c-4.69-0.65-9.02,2.62-9.67,7.31c-0.51,3.7,1.43,7.18,4.57,8.79c0.83,0.43,1.75,0.73,2.74,0.86l24.02,3.32
		l-13.99,27.25l9.51,19.01l22.48-43.78l29.96,4.14c3.62,0.5,7.14-1.33,8.8-4.57c1.66-3.24,1.1-7.17-1.41-9.82l-20.82-21.94
		l5.42-10.55l29.95,4.15c3.62,0.5,7.14-1.34,8.81-4.58c1.67-3.25,1.09-7.18-1.41-9.82l-20.84-21.9l5.39-10.49l29.95,4.16
		c4.69,0.65,9.02-2.62,9.67-7.31c0.67-4.68-2.61-9.03-7.3-9.67l-24.01-3.34l20.88-45.96"/>
	<g class="st4">
		<path fill="white" d="M209.45,149.36c14.75,14.13,21.97,31.71,21.97,52.43c0,10.05-1.88,19.46-5.65,28.25c-3.77,9.1-9.1,16.64-15.7,23.23
			c-6.59,6.91-14.44,11.93-23.54,16.01c-8.79,3.77-18.21,5.65-28.25,5.65H64.1v-42.07h94.18c4.08,0,8.16-0.63,11.93-2.2
			c4.08-1.57,7.53-3.77,10.36-6.91c2.83-2.83,5.02-6.28,6.59-10.05c1.57-3.77,2.51-7.85,2.51-11.93s-0.94-8.16-2.51-11.93
			s-3.77-7.22-6.59-10.05s-5.96-5.34-9.73-6.91c-4.08-1.57-8.16-2.51-12.56-2.51H64.1H22.35v-41.75h25.11H64.1h94.18
			c4.08,0,8.16-0.63,11.93-2.51c4.08-1.57,7.53-3.77,10.36-6.91c2.83-2.83,5.02-6.28,6.59-10.05s2.51-7.85,2.51-12.24
			c0-4.08-0.94-8.16-2.51-11.93s-3.77-7.22-6.59-10.05c-2.83-3.14-6.28-5.34-10.36-6.91c-3.77-1.57-7.85-2.2-11.93-2.2H64.1
			L22.35,23.79h135.93c9.73,0,19.15,1.88,28.25,5.65c9.1,4.08,16.95,9.1,23.54,16.01c6.59,6.59,11.93,14.13,15.7,23.23
			c3.77,8.79,5.65,18.21,5.65,28.25C231.43,117.34,224.21,134.92,209.45,149.36z"/>
		<path fill="white" d="M357.63,181.06l-23.55,47.09L231.75,23.79h46.78L357.63,181.06z M640.79,23.79L515.22,274.93l-79.11-157.28l23.54-47.09
			l55.57,110.5l78.79-157.28H640.79z"/>
		<path fill="white" d="M623.81,232.86l-21.35,42.07h-46.46L681.58,23.79l83.82,167.64h-47.09l-36.73-73.77l-37.04,73.77L623.81,232.86z
			 M807.15,274.93h-46.77l-20.72-41.75h46.46L807.15,274.93z"/>
	</g>
</g>
</svg>
